<?xml version="1.0" encoding="UTF-8"?>
<svg xmlns="http://www.w3.org/2000/svg" xmlns:xlink="http://www.w3.org/1999/xlink" width="30px" height="30px" viewBox="0 0 30 30" version="1.1">
<g id="surface1">
<path style="fill-rule:nonzero;fill:rgb(99.607843%,30.196078%,30.196078%);fill-opacity:1;stroke-width:1;stroke-linecap:butt;stroke-linejoin:miter;stroke:rgb(99.607843%,30.196078%,30.196078%);stroke-opacity:1;stroke-miterlimit:4;" d="M 12.380859 5.304167 L 10.094922 7.590104 L 10.102344 7.609896 L 11.839062 14.00013 C 11.898438 14.282161 11.819271 14.579036 11.626302 14.794271 L 11.054818 15.368229 C 10.978125 15.454818 10.864323 15.499349 10.748047 15.482031 C 10.634245 15.467187 10.535286 15.392969 10.488281 15.286589 L 8.140495 11.036328 L 7.395833 10.291667 L 5.424089 12.260937 C 5.198958 12.461328 4.946615 12.632031 4.674479 12.765625 L 5.114844 14.212891 C 5.181641 14.492448 5.107422 14.786849 4.916927 15.002083 L 4.741276 15.177734 C 4.555729 15.363281 4.253906 15.363281 4.068359 15.177734 L 3.029297 14.138672 L 3.011979 14.11888 L 2.222786 13.332161 L 1.163932 12.273307 C 0.980859 12.08776 0.980859 11.788411 1.163932 11.602865 L 1.342057 11.427214 C 1.554818 11.234245 1.851693 11.160026 2.13125 11.229297 L 3.578516 11.667187 C 3.712109 11.395052 3.880339 11.142708 4.083203 10.917578 L 6.052474 8.945833 L 5.305339 8.203646 L 1.055078 5.855859 C 0.951172 5.80638 0.876953 5.707422 0.859635 5.59362 C 0.844792 5.479818 0.886849 5.363542 0.975911 5.289323 L 1.54987 4.715365 C 1.765104 4.522396 2.059505 4.445703 2.34401 4.505078 L 8.731771 6.241797 L 8.754036 6.246745 L 11.039974 3.960807 C 11.408594 3.589714 12.660417 2.941536 13.03151 3.310156 C 13.402604 3.683724 12.751953 4.933073 12.380859 5.304167 Z M 12.380859 5.304167 " transform="matrix(1.578947,0,0,1.578947,3.947368,0)"/>
</g>
</svg>
