<svg xmlns="http://www.w3.org/2000/svg" xmlns:xlink="http://www.w3.org/1999/xlink" width="44" zoomAndPan="magnify" viewBox="0 0 33 30.000001" height="40" preserveAspectRatio="xMidYMid meet" version="1.0"><defs><clipPath id="28eeb958a4"><path d="M 5.667969 1.453125 L 27.394531 1.453125 L 27.394531 20.726562 L 5.667969 20.726562 Z M 5.667969 1.453125 " clip-rule="nonzero"/></clipPath><clipPath id="3b89b6a255"><path d="M 9.648438 11.324219 L 22.121094 11.324219 L 22.121094 27.582031 L 9.648438 27.582031 Z M 9.648438 11.324219 " clip-rule="nonzero"/></clipPath><clipPath id="6c7d55487a"><path d="M 17 3 L 27.417969 3 L 27.417969 16 L 17 16 Z M 17 3 " clip-rule="nonzero"/></clipPath></defs><g clip-path="url(#28eeb958a4)"><path fill="#ececec" d="M 21.082031 2.453125 C 21.082031 2.453125 22.183594 2.980469 23.050781 2.921875 C 23.914062 2.863281 24.882812 1.621094 23.574219 1.464844 C 22.269531 1.308594 21.082031 2.453125 21.082031 2.453125 C 21.082031 2.453125 21.957031 1.929688 22.339844 1.871094 C 22.339844 1.871094 21.972656 2.207031 21.617188 2.3125 C 21.617188 2.3125 22.335938 2.179688 22.546875 2.277344 C 22.546875 2.277344 21.90625 2.527344 21.636719 2.496094 C 21.636719 2.496094 22.117188 2.597656 22.285156 2.707031 C 22.285156 2.707031 21.375 2.574219 21.082031 2.453125 Z M 27.21875 12.09375 C 27.21875 12.09375 26.449219 14.191406 24.585938 14.75 C 24.585938 14.75 23.410156 15.984375 22.210938 15.808594 C 22.210938 15.808594 23.25 16.363281 25.683594 14.597656 C 25.683594 14.597656 24.832031 15.511719 24.742188 15.902344 C 24.742188 15.902344 25.511719 15.070312 25.960938 14.835938 C 26.410156 14.601562 27.070312 13.351562 27.21875 12.09375 Z M 17.058594 3.871094 C 17.246094 4.082031 18.351562 5.261719 19.269531 5.648438 C 20.1875 6.035156 23.433594 7.082031 25.347656 9.8125 C 27.261719 12.542969 24.746094 14.539062 24.746094 14.539062 C 24.746094 14.539062 26.378906 13.855469 27.128906 11.820312 C 27.882812 9.785156 26.984375 7.527344 25.152344 5.460938 C 23.324219 3.390625 20.996094 2.636719 20.347656 2.238281 C 19.703125 1.835938 18.699219 1.972656 18.273438 1.839844 C 17.691406 1.660156 16.820312 2.125 16.558594 2.492188 C 16.207031 2.980469 16.867188 3.65625 17.058594 3.871094 Z M 13.21875 11.386719 C 13.007812 11.238281 13.085938 10.558594 13.085938 10.558594 C 13.011719 10.84375 12.398438 11.636719 12.398438 11.636719 C 12.261719 11.265625 12.921875 10.5625 12.921875 10.5625 C 12.582031 10.851562 12.117188 11.058594 12.117188 11.058594 C 12.164062 10.816406 12.769531 10.472656 13.136719 10.28125 C 12.695312 10.367188 11.808594 10.605469 11.621094 11.160156 C 11.367188 11.902344 11.203125 12.785156 11.175781 12.8125 C 11.152344 12.839844 12.519531 12.625 13.132812 11.855469 C 13.324219 11.613281 13.398438 11.28125 13.417969 10.980469 C 13.332031 11.210938 13.21875 11.386719 13.21875 11.386719 Z M 11.527344 5.933594 C 11.527344 5.933594 11.910156 6.03125 12.125 6.121094 C 11.898438 5.988281 11.441406 5.695312 11.441406 5.449219 C 11.441406 5.449219 11.898438 5.597656 12.289062 5.882812 C 11.652344 4.585938 9.957031 4.4375 9.957031 4.4375 C 10.105469 4.578125 10.308594 5.46875 10.746094 5.847656 C 11.085938 6.140625 11.933594 6.289062 12.292969 6.339844 C 12.011719 6.21875 11.6875 6.058594 11.527344 5.933594 Z M 8.339844 17.375 C 7.753906 17.058594 7.359375 16.734375 7.359375 16.734375 C 7.378906 16.953125 7.917969 17.929688 7.917969 17.929688 C 7.675781 17.699219 7.445312 17.332031 7.25 16.945312 C 7.410156 17.828125 7.976562 19.300781 9.847656 20.726562 C 9.847656 20.726562 9.339844 19.90625 9.300781 19.371094 C 9.300781 19.371094 10.195312 19.96875 11.582031 20.042969 C 11.582031 20.042969 9.757812 19.039062 9.347656 18.167969 C 9.347656 18.167969 9.816406 18.101562 10.5 18.15625 C 10.5 18.15625 8.953125 17.414062 7.96875 16.773438 C 8.191406 17.109375 8.339844 17.375 8.339844 17.375 Z M 10.859375 6.617188 C 12.621094 6.230469 14.6875 6.09375 16.230469 6.921875 C 17.777344 7.75 17.007812 8.3125 16.382812 9.058594 C 15.753906 9.804688 14.582031 10.042969 13.515625 10 C 12.453125 9.957031 9.285156 10.429688 7.574219 13.265625 C 5.863281 16.097656 7.757812 18.988281 7.757812 18.988281 C 2.359375 11.949219 8.890625 7.050781 10.859375 6.617188 " fill-opacity="1" fill-rule="nonzero"/></g><g clip-path="url(#3b89b6a255)"><path fill="#f3603a" d="M 15.351562 16.535156 C 15.496094 15.820312 15.324219 15.3125 15.355469 15.160156 C 15.324219 15.46875 14.738281 16.253906 14.738281 16.253906 C 14.792969 15.808594 15.355469 15.160156 15.355469 15.160156 C 15.363281 15.121094 14.285156 15.996094 13.871094 17.269531 C 13.871094 17.269531 15.207031 17.25 15.351562 16.535156 Z M 20.605469 14.0625 C 19.890625 13.664062 19.132812 14.011719 19.132812 14.011719 C 19.132812 14.011719 19.910156 13.894531 20.386719 14.136719 C 20.386719 14.136719 19.941406 14.089844 19.722656 14.144531 C 19.722656 14.144531 19.984375 14.140625 19.949219 14.566406 C 19.949219 14.566406 19.441406 14.074219 19.132812 14.011719 C 19.605469 14.296875 19.585938 15.457031 19.878906 15.691406 C 20.171875 15.925781 22.117188 14.71875 22.117188 14.71875 C 22.117188 14.71875 21.320312 14.460938 20.605469 14.0625 Z M 17.359375 21.453125 C 17.378906 22.25 16.800781 23.144531 16.613281 23.417969 C 16.597656 23.445312 16.578125 23.472656 16.554688 23.5 C 16.554688 23.5 16.578125 23.46875 16.613281 23.417969 C 16.867188 23.019531 16.992188 22.199219 16.992188 22.199219 C 16.585938 22.917969 15.8125 23.128906 15.375 23.1875 C 15.269531 23.214844 15.164062 23.226562 15.058594 23.214844 C 15.058594 23.214844 15.1875 23.214844 15.375 23.1875 C 16.058594 23.019531 16.769531 22.167969 16.769531 22.167969 C 16.179688 22.527344 15.464844 22.136719 15.464844 22.136719 C 16.671875 22.441406 17.28125 21.03125 17.28125 21.03125 C 17.28125 21.03125 16.625 22.199219 15.203125 21.792969 C 13.777344 21.386719 12.679688 21.5 12.398438 21.648438 C 12.398438 21.648438 13.652344 21.761719 14.171875 22.527344 C 14.171875 22.527344 12.851562 22.238281 11.605469 23.355469 C 10.363281 24.476562 9.679688 27.582031 9.679688 27.582031 C 9.679688 27.582031 13.257812 24.753906 14.5 25.03125 C 15.746094 25.308594 13.769531 26.433594 13.089844 26.25 C 13.089844 26.25 14.011719 27.046875 15.136719 26.195312 C 16.15625 25.421875 17.460938 22.949219 17.359375 21.453125 Z M 18.546875 12.601562 C 18.894531 13.253906 20.019531 18.152344 19.292969 19.984375 C 18.570312 21.816406 17.03125 23.765625 17.03125 23.765625 C 18.699219 21.234375 16.894531 18.898438 16.191406 17.792969 C 15.484375 16.6875 15.511719 14.921875 15.519531 13.910156 C 15.527344 12.898438 16.570312 11.496094 16.570312 11.496094 C 16.914062 10.972656 18.199219 11.949219 18.546875 12.601562 " fill-opacity="1" fill-rule="nonzero"/></g><g clip-path="url(#6c7d55487a)"><path fill="#d12c23" d="M 24.792969 14.878906 C 24.683594 14.902344 24.554688 14.910156 24.414062 14.914062 C 24.046875 15.242188 23.136719 15.945312 22.210938 15.808594 C 22.210938 15.808594 23.128906 16.300781 25.253906 14.898438 C 25.136719 14.851562 24.96875 14.84375 24.792969 14.878906 Z M 24.804688 15.742188 C 24.988281 15.609375 25.136719 15.492188 25.226562 15.414062 C 25.238281 15.402344 25.25 15.390625 25.261719 15.378906 C 25.445312 15.199219 25.453125 15.058594 25.359375 14.964844 C 25.160156 15.203125 24.921875 15.511719 24.804688 15.742188 Z M 27.09375 11.433594 C 27.289062 11.285156 26.875 10.527344 26.847656 10.164062 C 26.820312 9.804688 26.230469 9.597656 26.207031 9.597656 C 25.570312 9.558594 26.894531 11.578125 27.09375 11.433594 Z M 22.605469 4.710938 C 23.960938 5.945312 24.640625 6.714844 24.671875 7.097656 C 24.703125 7.480469 25.554688 7.867188 25.78125 7.699219 C 25.890625 7.617188 25.972656 7.023438 25.832031 6.296875 C 25.625 6.015625 25.398438 5.734375 25.152344 5.460938 C 24.539062 4.765625 23.867188 4.21875 23.222656 3.78125 C 22.492188 3.789062 21.796875 3.976562 22.605469 4.710938 Z M 18.628906 4 C 18.195312 3.605469 17.617188 3.789062 17.210938 4.035156 C 17.589844 4.433594 18.488281 5.3125 19.257812 5.644531 C 19.351562 5.285156 19.207031 4.527344 18.628906 4 Z M 19.566406 5.929688 C 19.566406 5.929688 20 7.089844 20.351562 7.355469 C 20.351562 7.355469 20.320312 6.800781 20.078125 6.609375 C 20.078125 6.609375 20.734375 7 20.921875 6.929688 C 20.921875 6.929688 20.46875 6.492188 19.988281 6.167969 C 20.5625 6.503906 21.542969 7.09375 21.644531 7.304688 C 21.785156 7.601562 21.359375 8.761719 20.558594 8.007812 C 19.753906 7.257812 19.566406 5.929688 19.566406 5.929688 " fill-opacity="1" fill-rule="nonzero"/></g><path fill="#302f2f" d="M 17.371094 3.386719 C 17.601562 3.234375 17.148438 2.824219 17.148438 2.824219 C 17.148438 2.988281 17.144531 3.539062 17.371094 3.386719 Z M 18.082031 2.15625 C 17.851562 1.945312 17.425781 2.328125 17.425781 2.328125 C 17.425781 2.328125 18.316406 2.371094 18.082031 2.15625 Z M 10.480469 4.890625 C 10.808594 5.042969 11.222656 5.308594 11.371094 5.300781 C 11.410156 5.300781 11.53125 5.222656 11.644531 5.101562 C 11.171875 4.730469 10.621094 4.566406 10.277344 4.492188 C 10.308594 4.683594 10.371094 4.839844 10.480469 4.890625 Z M 8.578125 10.777344 C 8.355469 11 8.074219 11.265625 8.0625 11.890625 C 8.054688 12.511719 7.144531 12.375 6.84375 12.769531 C 6.667969 13 7.066406 13.285156 7.453125 13.480469 C 7.492188 13.40625 7.53125 13.335938 7.574219 13.265625 C 8.277344 12.101562 9.222656 11.339844 10.167969 10.84375 C 9.769531 10.574219 8.761719 10.59375 8.578125 10.777344 Z M 12.496094 8.320312 C 12.527344 8.378906 12.726562 9.078125 13.125 9.027344 C 13.519531 8.976562 14 9.757812 14.304688 9.152344 C 14.605469 8.546875 14.722656 8.042969 14.472656 7.832031 C 14.21875 7.621094 12.167969 7.71875 12.496094 8.320312 Z M 7.683594 8.761719 C 8.015625 9.101562 8.460938 9.5 8.582031 9.359375 C 8.785156 9.128906 9.640625 8.9375 9.90625 8.921875 C 10.171875 8.902344 10.808594 8.941406 10.761719 8.429688 C 10.734375 8.101562 10.347656 7.433594 9.914062 7 C 9.234375 7.363281 8.417969 7.960938 7.683594 8.761719 Z M 16.144531 7.25 C 16.09375 7.445312 16.578125 7.601562 16.578125 7.601562 C 16.5625 7.21875 16.195312 7.054688 16.144531 7.25 Z M 16.679688 8.226562 C 16.679688 8.226562 16.085938 8.441406 16.3125 8.65625 C 16.566406 8.902344 16.679688 8.226562 16.679688 8.226562 Z M 17.871094 12.179688 C 17.898438 11.949219 17.164062 11.898438 17.164062 11.898438 C 17.164062 11.898438 17.839844 12.414062 17.871094 12.179688 Z M 16.273438 12.566406 C 16.074219 12.429688 16.699219 11.96875 16.699219 11.96875 C 16.699219 11.96875 16.472656 12.703125 16.273438 12.566406 " fill-opacity="1" fill-rule="nonzero"/></svg>